<svg xmlns="http://www.w3.org/2000/svg" width="1440" height="900"><path d="M756,477L606,532L718,703Z" fill="#fbfbfb" stroke="#fbfbfb" stroke-width="1.51"/><path d="M718,703L922,519L756,477Z" fill="#fbfbfb" stroke="#fbfbfb" stroke-width="1.51"/><path d="M718,703L894,717L922,519Z" fill="#f8f8f8" stroke="#f8f8f8" stroke-width="1.51"/><path d="M606,532L507,761L718,703Z" fill="#f8f8f8" stroke="#f8f8f8" stroke-width="1.51"/><path d="M718,703L788,908L894,717Z" fill="#f6f6f6" stroke="#f6f6f6" stroke-width="1.51"/><path d="M657,228L452,347L606,532Z" fill="#fafafa" stroke="#fafafa" stroke-width="1.51"/><path d="M922,519L882,344L756,477Z" fill="#fdfdfd" stroke="#fdfdfd" stroke-width="1.51"/><path d="M606,532L414,587L507,761Z" fill="#f7f7f7" stroke="#f7f7f7" stroke-width="1.51"/><path d="M452,347L414,587L606,532Z" fill="#fafafa" stroke="#fafafa" stroke-width="1.51"/><path d="M882,344L803,301L756,477Z" fill="#fcfcfc" stroke="#fcfcfc" stroke-width="1.51"/><path d="M507,761L788,908L718,703Z" fill="#f6f6f6" stroke="#f6f6f6" stroke-width="1.51"/><path d="M657,228L606,532L756,477Z" fill="#fdfdfd" stroke="#fdfdfd" stroke-width="1.51"/><path d="M803,301L657,228L756,477Z" fill="#fcfcfc" stroke="#fcfcfc" stroke-width="1.51"/><path d="M894,717L1083,688L922,519Z" fill="#f6f6f6" stroke="#f6f6f6" stroke-width="1.51"/><path d="M922,519L1150,396L882,344Z" fill="#fafafa" stroke="#fafafa" stroke-width="1.51"/><path d="M1007,890L1083,688L894,717Z" fill="#f3f3f3" stroke="#f3f3f3" stroke-width="1.51"/><path d="M1083,688L1099,593L922,519Z" fill="#f6f6f6" stroke="#f6f6f6" stroke-width="1.51"/><path d="M788,908L1007,890L894,717Z" fill="#f3f3f3" stroke="#f3f3f3" stroke-width="1.51"/><path d="M243,636L294,732L414,587Z" fill="#f4f4f4" stroke="#f4f4f4" stroke-width="1.51"/><path d="M657,228L459,233L452,347Z" fill="#f7f7f7" stroke="#f7f7f7" stroke-width="1.51"/><path d="M507,761L453,934L788,908Z" fill="#f3f3f3" stroke="#f3f3f3" stroke-width="1.51"/><path d="M335,920L453,934L507,761Z" fill="#f0f0f0" stroke="#f0f0f0" stroke-width="1.51"/><path d="M414,587L294,732L507,761Z" fill="#f4f4f4" stroke="#f4f4f4" stroke-width="1.51"/><path d="M304,362L414,587L452,347Z" fill="#f9f9f9" stroke="#f9f9f9" stroke-width="1.51"/><path d="M850,1064L932,984L788,908Z" fill="#f0f0f0" stroke="#f0f0f0" stroke-width="1.51"/><path d="M788,908L932,984L1007,890Z" fill="#f1f1f1" stroke="#f1f1f1" stroke-width="1.51"/><path d="M459,233L304,362L452,347Z" fill="#f7f7f7" stroke="#f7f7f7" stroke-width="1.51"/><path d="M304,362L243,636L414,587Z" fill="#f6f6f6" stroke="#f6f6f6" stroke-width="1.51"/><path d="M1280,427L1150,396L1099,593Z" fill="#f7f7f7" stroke="#f7f7f7" stroke-width="1.51"/><path d="M1099,593L1150,396L922,519Z" fill="#f8f8f8" stroke="#f8f8f8" stroke-width="1.51"/><path d="M882,344L926,128L803,301Z" fill="#f8f8f8" stroke="#f8f8f8" stroke-width="1.51"/><path d="M803,301L926,128L657,228Z" fill="#f8f8f8" stroke="#f8f8f8" stroke-width="1.51"/><path d="M738,1118L850,1064L788,908Z" fill="#f1f1f1" stroke="#f1f1f1" stroke-width="1.51"/><path d="M453,934L738,1118L788,908Z" fill="#f2f2f2" stroke="#f2f2f2" stroke-width="1.51"/><path d="M294,732L335,920L507,761Z" fill="#f1f1f1" stroke="#f1f1f1" stroke-width="1.51"/><path d="M245,817L335,920L294,732Z" fill="#efefef" stroke="#efefef" stroke-width="1.51"/><path d="M1011,127L926,128L882,344Z" fill="#f6f6f6" stroke="#f6f6f6" stroke-width="1.51"/><path d="M657,228L660,63L459,233Z" fill="#f6f6f6" stroke="#f6f6f6" stroke-width="1.51"/><path d="M243,636L245,817L294,732Z" fill="#f1f1f1" stroke="#f1f1f1" stroke-width="1.51"/><path d="M926,128L660,63L657,228Z" fill="#f7f7f7" stroke="#f7f7f7" stroke-width="1.51"/><path d="M459,233L249,231L304,362Z" fill="#f4f4f4" stroke="#f4f4f4" stroke-width="1.51"/><path d="M624,1191L738,1118L453,934Z" fill="#eeeeee" stroke="#eeeeee" stroke-width="1.51"/><path d="M660,63L399,136L459,233Z" fill="#f4f4f4" stroke="#f4f4f4" stroke-width="1.51"/><path d="M926,128L952,-26L660,63Z" fill="#f5f5f5" stroke="#f5f5f5" stroke-width="1.51"/><path d="M1150,396L1011,127L882,344Z" fill="#f6f6f6" stroke="#f6f6f6" stroke-width="1.51"/><path d="M335,920L407,1053L453,934Z" fill="#ededed" stroke="#ededed" stroke-width="1.51"/><path d="M224,1181L407,1053L335,920Z" fill="#ebebeb" stroke="#ebebeb" stroke-width="1.51"/><path d="M1083,688L1286,631L1099,593Z" fill="#f3f3f3" stroke="#f3f3f3" stroke-width="1.51"/><path d="M1150,396L1275,120L1011,127Z" fill="#f2f2f2" stroke="#f2f2f2" stroke-width="1.51"/><path d="M1286,682L1286,631L1083,688Z" fill="#f2f2f2" stroke="#f2f2f2" stroke-width="1.51"/><path d="M1286,682L1083,688L1242,910Z" fill="#f0f0f0" stroke="#f0f0f0" stroke-width="1.51"/><path d="M304,362L167,389L243,636Z" fill="#f6f6f6" stroke="#f6f6f6" stroke-width="1.51"/><path d="M243,636L50,741L245,817Z" fill="#f0f0f0" stroke="#f0f0f0" stroke-width="1.51"/><path d="M249,231L167,389L304,362Z" fill="#f4f4f4" stroke="#f4f4f4" stroke-width="1.51"/><path d="M399,136L249,231L459,233Z" fill="#f3f3f3" stroke="#f3f3f3" stroke-width="1.51"/><path d="M1242,910L1007,890L1138,1060Z" fill="#ececec" stroke="#ececec" stroke-width="1.51"/><path d="M1242,910L1083,688L1007,890Z" fill="#f0f0f0" stroke="#f0f0f0" stroke-width="1.51"/><path d="M1286,631L1280,427L1099,593Z" fill="#f4f4f4" stroke="#f4f4f4" stroke-width="1.51"/><path d="M738,1118L1138,1060L850,1064Z" fill="#ededed" stroke="#ededed" stroke-width="1.51"/><path d="M407,1053L624,1191L453,934Z" fill="#ededed" stroke="#ededed" stroke-width="1.51"/><path d="M1138,1060L932,984L850,1064Z" fill="#ededed" stroke="#ededed" stroke-width="1.51"/><path d="M1138,1060L1007,890L932,984Z" fill="#eeeeee" stroke="#eeeeee" stroke-width="1.51"/><path d="M624,1191L1138,1060L738,1118Z" fill="#ededed" stroke="#ededed" stroke-width="1.51"/><path d="M1011,127L952,-26L926,128Z" fill="#f2f2f2" stroke="#f2f2f2" stroke-width="1.51"/><path d="M660,63L590,-98L399,136Z" fill="#f4f4f4" stroke="#f4f4f4" stroke-width="1.51"/><path d="M1111,-98L952,-26L1011,127Z" fill="#f3f3f3" stroke="#f3f3f3" stroke-width="1.51"/><path d="M245,817L71,869L335,920Z" fill="#ededed" stroke="#ededed" stroke-width="1.51"/><path d="M-24,553L50,741L243,636Z" fill="#f4f4f4" stroke="#f4f4f4" stroke-width="1.51"/><path d="M694,-214L590,-98L660,63Z" fill="#f9f9f9" stroke="#f9f9f9" stroke-width="1.51"/><path d="M399,136L305,1L249,231Z" fill="#f1f1f1" stroke="#f1f1f1" stroke-width="1.51"/><path d="M50,741L71,869L245,817Z" fill="#f0f0f0" stroke="#f0f0f0" stroke-width="1.51"/><path d="M407,1053L224,1181L624,1191Z" fill="#eaeaea" stroke="#eaeaea" stroke-width="1.51"/><path d="M427,-156L305,1L399,136Z" fill="#f3f3f3" stroke="#f3f3f3" stroke-width="1.51"/><path d="M-8,394L-24,553L167,389Z" fill="#f9f9f9" stroke="#f9f9f9" stroke-width="1.51"/><path d="M1138,1060L1249,1075L1242,910Z" fill="#eaeaea" stroke="#eaeaea" stroke-width="1.51"/><path d="M1242,910L1398,840L1286,682Z" fill="#ededed" stroke="#ededed" stroke-width="1.51"/><path d="M624,1191L1249,1075L1138,1060Z" fill="#ebebeb" stroke="#ebebeb" stroke-width="1.51"/><path d="M1518,335L1275,120L1280,427Z" fill="#f1f1f1" stroke="#f1f1f1" stroke-width="1.51"/><path d="M1280,427L1275,120L1150,396Z" fill="#f3f3f3" stroke="#f3f3f3" stroke-width="1.51"/><path d="M1286,631L1459,494L1280,427Z" fill="#f3f3f3" stroke="#f3f3f3" stroke-width="1.51"/><path d="M1495,774L1459,494L1286,631Z" fill="#efefef" stroke="#efefef" stroke-width="1.51"/><path d="M1249,1075L1398,840L1242,910Z" fill="#eaeaea" stroke="#eaeaea" stroke-width="1.51"/><path d="M167,389L-24,553L243,636Z" fill="#f6f6f6" stroke="#f6f6f6" stroke-width="1.51"/><path d="M50,741L-70,828L71,869Z" fill="#f1f1f1" stroke="#f1f1f1" stroke-width="1.51"/><path d="M-8,394L167,389L-4,224Z" fill="#f6f6f6" stroke="#f6f6f6" stroke-width="1.51"/><path d="M-4,224L167,389L249,231Z" fill="#f3f3f3" stroke="#f3f3f3" stroke-width="1.51"/><path d="M1495,774L1286,631L1286,682Z" fill="#efefef" stroke="#efefef" stroke-width="1.51"/><path d="M71,869L224,1181L335,920Z" fill="#eaeaea" stroke="#eaeaea" stroke-width="1.51"/><path d="M1111,-98L901,-178L952,-26Z" fill="#f6f6f6" stroke="#f6f6f6" stroke-width="1.51"/><path d="M952,-26L901,-178L660,63Z" fill="#f7f7f7" stroke="#f7f7f7" stroke-width="1.51"/><path d="M305,1L138,44L249,231Z" fill="#efefef" stroke="#efefef" stroke-width="1.51"/><path d="M43,22L138,44L78,-296Z" fill="#f3f3f3" stroke="#f3f3f3" stroke-width="1.51"/><path d="M1275,120L1111,-98L1011,127Z" fill="#f0f0f0" stroke="#f0f0f0" stroke-width="1.51"/><path d="M594,-255L427,-156L590,-98Z" fill="#f9f9f9" stroke="#f9f9f9" stroke-width="1.51"/><path d="M590,-98L427,-156L399,136Z" fill="#f5f5f5" stroke="#f5f5f5" stroke-width="1.51"/><path d="M901,-178L694,-214L660,63Z" fill="#fafafa" stroke="#fafafa" stroke-width="1.51"/><path d="M-8,394L-124,540L-24,553Z" fill="#f9f9f9" stroke="#f9f9f9" stroke-width="1.51"/><path d="M138,44L-4,224L249,231Z" fill="#f1f1f1" stroke="#f1f1f1" stroke-width="1.51"/><path d="M1398,840L1495,774L1286,682Z" fill="#ededed" stroke="#ededed" stroke-width="1.51"/><path d="M1568,959L1495,774L1398,840Z" fill="#e9e9e9" stroke="#e9e9e9" stroke-width="1.51"/><path d="M71,869L5,1043L224,1181Z" fill="#ebebeb" stroke="#ebebeb" stroke-width="1.51"/><path d="M-24,553L-70,828L50,741Z" fill="#f4f4f4" stroke="#f4f4f4" stroke-width="1.51"/><path d="M-228,647L-70,828L-24,553Z" fill="#f6f6f6" stroke="#f6f6f6" stroke-width="1.51"/><path d="M-236,422L-124,540L-8,394Z" fill="#fcfcfc" stroke="#fcfcfc" stroke-width="1.51"/><path d="M-70,828L5,1043L71,869Z" fill="#efefef" stroke="#efefef" stroke-width="1.51"/><path d="M1459,494L1518,335L1280,427Z" fill="#f3f3f3" stroke="#f3f3f3" stroke-width="1.51"/><path d="M1275,120L1265,-59L1111,-98Z" fill="#f0f0f0" stroke="#f0f0f0" stroke-width="1.51"/><path d="M1624,480L1518,335L1459,494Z" fill="#f1f1f1" stroke="#f1f1f1" stroke-width="1.51"/><path d="M1095,-250L594,-255L694,-214Z" fill="#fcfcfc" stroke="#fcfcfc" stroke-width="1.51"/><path d="M694,-214L594,-255L590,-98Z" fill="#fbfbfb" stroke="#fbfbfb" stroke-width="1.51"/><path d="M1464,43L1265,-59L1275,120Z" fill="#ededed" stroke="#ededed" stroke-width="1.51"/><path d="M1111,-98L1095,-250L901,-178Z" fill="#f7f7f7" stroke="#f7f7f7" stroke-width="1.51"/><path d="M138,44L43,22L-4,224Z" fill="#f1f1f1" stroke="#f1f1f1" stroke-width="1.51"/><path d="M-236,422L-228,647L-124,540Z" fill="#fbfbfb" stroke="#fbfbfb" stroke-width="1.51"/><path d="M78,-296L138,44L305,1Z" fill="#f2f2f2" stroke="#f2f2f2" stroke-width="1.51"/><path d="M-263,109L43,22L-245,-25Z" fill="#f5f5f5" stroke="#f5f5f5" stroke-width="1.51"/><path d="M1518,335L1500,165L1275,120Z" fill="#ededed" stroke="#ededed" stroke-width="1.51"/><path d="M1518,335L1652,303L1500,165Z" fill="#ededed" stroke="#ededed" stroke-width="1.51"/><path d="M1495,774L1624,480L1459,494Z" fill="#eeeeee" stroke="#eeeeee" stroke-width="1.51"/><path d="M1208,-285L1095,-250L1111,-98Z" fill="#f6f6f6" stroke="#f6f6f6" stroke-width="1.51"/><path d="M901,-178L1095,-250L694,-214Z" fill="#fafafa" stroke="#fafafa" stroke-width="1.51"/><path d="M1208,-285L1111,-98L1265,-59Z" fill="#f3f3f3" stroke="#f3f3f3" stroke-width="1.51"/><path d="M1728,119L1464,43L1500,165Z" fill="#e9e9e9" stroke="#e9e9e9" stroke-width="1.51"/><path d="M1500,165L1464,43L1275,120Z" fill="#ececec" stroke="#ececec" stroke-width="1.51"/><path d="M1495,774L1661,816L1624,480Z" fill="#ebebeb" stroke="#ebebeb" stroke-width="1.51"/><path d="M1249,1075L1568,959L1398,840Z" fill="#e8e8e8" stroke="#e8e8e8" stroke-width="1.51"/><path d="M-70,828L-299,996L5,1043Z" fill="#f0f0f0" stroke="#f0f0f0" stroke-width="1.51"/><path d="M-124,540L-228,647L-24,553Z" fill="#f9f9f9" stroke="#f9f9f9" stroke-width="1.51"/><path d="M-236,422L-8,394L-4,224Z" fill="#f8f8f8" stroke="#f8f8f8" stroke-width="1.51"/><path d="M-263,109L-236,422L-4,224Z" fill="#f8f8f8" stroke="#f8f8f8" stroke-width="1.51"/><path d="M1568,959L1661,816L1495,774Z" fill="#e8e8e8" stroke="#e8e8e8" stroke-width="1.51"/><path d="M1624,480L1652,303L1518,335Z" fill="#eeeeee" stroke="#eeeeee" stroke-width="1.51"/><path d="M1728,119L1652,303L1624,480Z" fill="#ececec" stroke="#ececec" stroke-width="1.51"/><path d="M1554,-292L1208,-285L1265,-59Z" fill="#f2f2f2" stroke="#f2f2f2" stroke-width="1.51"/><path d="M1095,-250L1208,-285L594,-255Z" fill="#fafafa" stroke="#fafafa" stroke-width="1.51"/><path d="M1249,1075L1553,1164L1568,959Z" fill="#e5e5e5" stroke="#e5e5e5" stroke-width="1.51"/><path d="M1568,959L1684,1103L1661,816Z" fill="#e4e4e4" stroke="#e4e4e4" stroke-width="1.51"/><path d="M624,1191L1553,1164L1249,1075Z" fill="#e8e8e8" stroke="#e8e8e8" stroke-width="1.51"/><path d="M-236,422L-299,996L-228,647Z" fill="#f8f8f8" stroke="#f8f8f8" stroke-width="1.51"/><path d="M43,22L-263,109L-4,224Z" fill="#f3f3f3" stroke="#f3f3f3" stroke-width="1.51"/><path d="M78,-296L305,1L427,-156Z" fill="#f4f4f4" stroke="#f4f4f4" stroke-width="1.51"/><path d="M594,-255L78,-296L427,-156Z" fill="#f7f7f7" stroke="#f7f7f7" stroke-width="1.51"/><path d="M1208,-285L78,-296L594,-255Z" fill="#fdfdfd" stroke="#fdfdfd" stroke-width="1.51"/><path d="M-228,647L-299,996L-70,828Z" fill="#f4f4f4" stroke="#f4f4f4" stroke-width="1.51"/><path d="M5,1043L-253,1186L224,1181Z" fill="#eaeaea" stroke="#eaeaea" stroke-width="1.51"/><path d="M-263,109L-299,996L-236,422Z" fill="#fdfdfd" stroke="#fdfdfd" stroke-width="1.51"/><path d="M1661,816L1728,119L1624,480Z" fill="#efefef" stroke="#efefef" stroke-width="1.51"/><path d="M1553,1164L1684,1103L1568,959Z" fill="#e2e2e2" stroke="#e2e2e2" stroke-width="1.51"/><path d="M1652,303L1728,119L1500,165Z" fill="#eaeaea" stroke="#eaeaea" stroke-width="1.51"/><path d="M1464,43L1554,-292L1265,-59Z" fill="#efefef" stroke="#efefef" stroke-width="1.51"/><path d="M1684,1103L1728,119L1661,816Z" fill="#eaeaea" stroke="#eaeaea" stroke-width="1.51"/><path d="M78,-296L-57,-243L43,22Z" fill="#f6f6f6" stroke="#f6f6f6" stroke-width="1.51"/><path d="M-57,-243L-245,-25L43,22Z" fill="#f6f6f6" stroke="#f6f6f6" stroke-width="1.51"/><path d="M-299,996L-253,1186L5,1043Z" fill="#efefef" stroke="#efefef" stroke-width="1.51"/><path d="M224,1181L-253,1186L624,1191Z" fill="#e6e6e6" stroke="#e6e6e6" stroke-width="1.51"/><path d="M1728,119L1702,-45L1464,43Z" fill="#e8e8e8" stroke="#e8e8e8" stroke-width="1.51"/><path d="M1208,-285L1600,-297L78,-296Z" fill="#fbfbfb" stroke="#fbfbfb" stroke-width="1.51"/><path d="M1702,-45L1554,-292L1464,43Z" fill="#ececec" stroke="#ececec" stroke-width="1.51"/><path d="M1554,-292L1600,-297L1208,-285Z" fill="#f3f3f3" stroke="#f3f3f3" stroke-width="1.51"/><path d="M1702,-45L1600,-297L1554,-292Z" fill="#eeeeee" stroke="#eeeeee" stroke-width="1.51"/><path d="M-57,-243L-302,-201L-245,-25Z" fill="#fafafa" stroke="#fafafa" stroke-width="1.51"/><path d="M-245,-25L-302,-201L-263,109Z" fill="#f8f8f8" stroke="#f8f8f8" stroke-width="1.51"/><path d="M-263,109L-302,-201L-299,996Z" fill="#fbfbfb" stroke="#fbfbfb" stroke-width="1.51"/><path d="M78,-296L-302,-201L-57,-243Z" fill="#fafafa" stroke="#fafafa" stroke-width="1.51"/></svg>